<svg id="Layer_1" data-name="Layer 1" xmlns="http://www.w3.org/2000/svg" viewBox="0 0 100 100"><defs><style>.cls-1,.cls-2{fill:none;stroke:#37b6ae;stroke-miterlimit:10;}.cls-1{stroke-width:5px;}.cls-2{stroke-width:4px;}</style></defs><title>linkedin</title><circle class="cls-1" cx="50" cy="50" r="46.06"/><path class="cls-2" d="M36.55,32c.07,1.78-1.39,3.21-3.72,3.21A3.29,3.29,0,0,1,29.32,32,3.38,3.38,0,0,1,33,28.73,3.29,3.29,0,0,1,36.55,32ZM30,68.78V40.06h5.85V68.78Z"/><path class="cls-2" d="M45.58,47.83c0-3-.07-5.39-.27-7.77h5.18l.34,4.75H51c1.59-2.73,5.31-5.4,10.62-5.4,4.44,0,11.35,2.37,11.35,12.22V68.78H67.09V52.22c0-4.62-2.46-6-8-6-3.85,0-7.7,4.42-7.7,5.31V68.78H45.58Z"/></svg>